<svg width="12" height="12" viewBox="0 0 12 12" fill="none" xmlns="http://www.w3.org/2000/svg">
<path fill-rule="evenodd" clip-rule="evenodd" d="M10.6877 0.5H1.31276C0.863851 0.5 0.5 0.852751 0.5 1.28814V10.7117C0.5 11.1471 0.863979 11.5001 1.31276 11.5001H10.6877C11.1366 11.5001 11.5 11.1468 11.5 10.7117V1.28814C11.5 0.852879 11.1366 0.5 10.6877 0.5ZM3.83491 9.70785H2.17289V4.74143H3.83491V9.70785ZM3.00406 4.06294H2.99289C2.43554 4.06294 2.07424 3.68177 2.07424 3.20457C2.07424 2.71776 2.44615 2.34693 3.01455 2.34693C3.583 2.34693 3.93265 2.71766 3.9437 3.20457C3.9437 3.68187 3.58312 4.06294 3.00406 4.06294ZM9.82601 9.70785H8.16452V7.05065C8.16452 6.38297 7.92379 5.92738 7.32293 5.92738C6.86328 5.92738 6.59042 6.23474 6.47061 6.53148C6.42621 6.63746 6.41521 6.78569 6.41521 6.93372V9.70775H4.75404C4.75404 9.70775 4.77577 5.20715 4.75404 4.74136H6.41547V5.44545C6.63602 5.10712 7.03016 4.62451 7.91246 4.62451C9.00603 4.62451 9.826 5.33392 9.826 6.86009V9.70785H9.82601ZM6.40472 5.49055C6.41286 5.47721 6.42423 5.46115 6.43552 5.44553V5.49055H6.40472Z" fill="white"/>
<mask id="mask0_2203_196505" style="mask-type:alpha" maskUnits="userSpaceOnUse" x="0" y="0" width="12" height="12">
<path fill-rule="evenodd" clip-rule="evenodd" d="M10.6877 0.5H1.31276C0.863851 0.5 0.5 0.852751 0.5 1.28814V10.7117C0.5 11.1471 0.863979 11.5001 1.31276 11.5001H10.6877C11.1366 11.5001 11.5 11.1468 11.5 10.7117V1.28814C11.5 0.852879 11.1366 0.5 10.6877 0.5ZM3.83491 9.70785H2.17289V4.74143H3.83491V9.70785ZM3.00406 4.06294H2.99289C2.43554 4.06294 2.07424 3.68177 2.07424 3.20457C2.07424 2.71776 2.44615 2.34693 3.01455 2.34693C3.583 2.34693 3.93265 2.71766 3.9437 3.20457C3.9437 3.68187 3.58312 4.06294 3.00406 4.06294ZM9.82601 9.70785H8.16452V7.05065C8.16452 6.38297 7.92379 5.92738 7.32293 5.92738C6.86328 5.92738 6.59042 6.23474 6.47061 6.53148C6.42621 6.63746 6.41521 6.78569 6.41521 6.93372V9.70775H4.75404C4.75404 9.70775 4.77577 5.20715 4.75404 4.74136H6.41547V5.44545C6.63602 5.10712 7.03016 4.62451 7.91246 4.62451C9.00603 4.62451 9.826 5.33392 9.826 6.86009V9.70785H9.82601ZM6.40472 5.49055C6.41286 5.47721 6.42423 5.46115 6.43552 5.44553V5.49055H6.40472Z" fill="white"/>
</mask>
<g mask="url(#mask0_2203_196505)">
</g>
</svg>
