<svg width="12" height="12" viewBox="0 0 12 12" fill="none" xmlns="http://www.w3.org/2000/svg">
<path d="M4.88909 2.6967C4.49856 3.08722 4.49856 3.72039 4.88909 4.11091C5.27961 4.50144 5.91278 4.50144 6.3033 4.11091L4.88909 2.6967ZM4.18198 6.23223C4.57251 5.84171 4.57251 5.20854 4.18198 4.81802C3.79146 4.42749 3.15829 4.42749 2.76777 4.81802L4.18198 6.23223ZM7.01041 9.06066C7.40093 8.67014 7.40093 8.03697 7.01041 7.64645C6.61988 7.25592 5.98672 7.25592 5.59619 7.64645L7.01041 9.06066ZM7.71752 5.52513C7.32699 5.91565 7.32699 6.54882 7.71752 6.93934C8.10804 7.32986 8.7412 7.32986 9.13173 6.93934L7.71752 5.52513ZM3.82843 6.58579C3.4379 6.97631 3.4379 7.60948 3.82843 8C4.21895 8.39052 4.85212 8.39052 5.24264 8L3.82843 6.58579ZM8.07107 5.17157C8.46159 4.78105 8.46159 4.14788 8.07107 3.75736C7.68054 3.36683 7.04738 3.36683 6.65685 3.75736L8.07107 5.17157ZM6.3033 4.11091L7.36396 3.05025L5.94975 1.63604L4.88909 2.6967L6.3033 4.11091ZM3.12132 7.29289L4.18198 6.23223L2.76777 4.81802L1.70711 5.87868L3.12132 7.29289ZM5.59619 7.64645L4.53553 8.70711L5.94975 10.1213L7.01041 9.06066L5.59619 7.64645ZM8.77818 4.46447L7.71752 5.52513L9.13173 6.93934L10.1924 5.87868L8.77818 4.46447ZM1.70711 10.1213C2.87868 11.2929 4.77817 11.2929 5.94975 10.1213L4.53553 8.70711C4.14501 9.09763 3.51184 9.09763 3.12132 8.70711L1.70711 10.1213ZM8.77818 3.05025C9.1687 3.44078 9.1687 4.07394 8.77818 4.46447L10.1924 5.87868C11.364 4.70711 11.364 2.80761 10.1924 1.63604L8.77818 3.05025ZM10.1924 1.63604C9.02082 0.464465 7.12132 0.464465 5.94975 1.63604L7.36396 3.05025C7.75449 2.65973 8.38765 2.65973 8.77818 3.05025L10.1924 1.63604ZM3.12132 8.70711C2.7308 8.31658 2.7308 7.68342 3.12132 7.29289L1.70711 5.87868C0.535534 7.05025 0.535534 8.94975 1.70711 10.1213L3.12132 8.70711ZM5.24264 8L8.07107 5.17157L6.65685 3.75736L3.82843 6.58579L5.24264 8Z" fill="white"/>
</svg>
