<?xml version="1.0" encoding="utf-8"?>
<!-- Generator: Adobe Illustrator 26.0.3, SVG Export Plug-In . SVG Version: 6.00 Build 0)  -->
<svg version="1.1" id="Layer_1" xmlns="http://www.w3.org/2000/svg" xmlns:xlink="http://www.w3.org/1999/xlink" x="0px" y="0px"
	 viewBox="0 0 66 66" style="enable-background:new 0 0 66 66;" xml:space="preserve">
<style type="text/css">
	.st0{fill:none;}
	.st1{fill:none;stroke:#001E2B;stroke-miterlimit:10;}
</style>
<path class="st0" d="M33,65c17.7,0,32-14.3,32-32S50.7,1,33,1S1,15.3,1,33S15.3,65,33,65z"/>
<path class="st1" d="M32.8,43.9l-9.1,5c-0.4,0.2-0.8-0.1-0.8-0.6l1.7-10.6c0.1-0.2-0.1-0.4-0.2-0.5l-7.3-7.5
	c-0.3-0.3-0.2-0.9,0.3-0.9l10.2-1.5c0.2,0,0.3-0.2,0.4-0.3l4.6-9.7c0.2-0.4,0.7-0.4,0.9,0l4.5,9.6c0.1,0.2,0.2,0.3,0.4,0.3l10.2,1.5
	c0.4,0.1,0.6,0.6,0.3,0.9l-7.4,7.6c-0.1,0.1-0.2,0.3-0.2,0.5L43,48.3c0.1,0.4-0.4,0.8-0.8,0.6l-9-5C33.1,43.8,32.9,43.8,32.8,43.9z"
	/>
</svg>
