<svg width="181" height="84" viewBox="0 0 181 84" fill="none" xmlns="http://www.w3.org/2000/svg">
<g clip-path="url(#clip0_707_406357)">
<path d="M173.546 6.35022L158.864 61.1398L123.863 63.6836L118.155 64.098L61.9941 68.1759L65.823 54.1126L76.9135 13.3775L173.546 6.35022Z" fill="white" stroke="black" stroke-linecap="round" stroke-linejoin="round"/>
<path d="M167.26 10.2738L154.256 57.9568L69.1406 62.89L81.0497 16.5428L167.26 10.2738Z" fill="#FFE212"/>
<path d="M161.412 67.2324L160.954 68.868L122.705 73.0032L27.3843 83.2796L26.7109 77.0459L27.1686 77.0018L27.2171 76.9886L118.603 70.3493L124.32 69.9349L161.412 67.2324Z" fill="black" stroke="black" stroke-linecap="round" stroke-linejoin="round"/>
<path d="M180.394 3.07465L164.757 60.7078H164.722L163.142 60.818L158.864 61.1354L173.55 6.35021L77.9038 13.3025L76.9355 13.3775L77.6353 10.794C77.8298 9.98578 78.2757 9.26031 78.9085 8.7223C79.5413 8.18429 80.3283 7.86155 81.1561 7.80063L178.418 0.724891C178.718 0.700466 179.02 0.747701 179.298 0.862722C179.577 0.977743 179.824 1.15727 180.02 1.38658C180.216 1.61589 180.355 1.88844 180.425 2.18188C180.495 2.47531 180.495 2.78127 180.425 3.07465H180.394Z" fill="white" stroke="black" stroke-linecap="round" stroke-linejoin="round"/>
<path d="M103.543 23.3011L123.211 21.8683" stroke="black" stroke-linecap="round" stroke-linejoin="round"/>
<path d="M124.641 21.7624L127.286 21.5729" stroke="black" stroke-linecap="round" stroke-linejoin="round"/>
<path d="M126.389 27.476L129.034 27.282" stroke="black" stroke-linecap="round" stroke-linejoin="round"/>
<path d="M134.967 32.6869L137.612 32.4929" stroke="black" stroke-linecap="round" stroke-linejoin="round"/>
<path d="M133.883 36.1476L136.537 35.9536" stroke="black" stroke-linecap="round" stroke-linejoin="round"/>
<path d="M130.807 27.1497L148.551 25.8624" stroke="black" stroke-linecap="round" stroke-linejoin="round"/>
<path d="M139.104 32.3827L153.9 31.3114" stroke="black" stroke-linecap="round" stroke-linejoin="round"/>
<path d="M138.086 35.8434L152.873 34.7677" stroke="black" stroke-linecap="round" stroke-linejoin="round"/>
<path d="M132.811 39.6084L135.456 39.4232" stroke="black" stroke-linecap="round" stroke-linejoin="round"/>
<path d="M137.004 39.3042L151.791 38.2329" stroke="black" stroke-linecap="round" stroke-linejoin="round"/>
<path d="M131.34 43.1044L133.989 42.9104" stroke="black" stroke-linecap="round" stroke-linejoin="round"/>
<path d="M135.539 42.8002L150.326 41.7289" stroke="black" stroke-linecap="round" stroke-linejoin="round"/>
<path d="M164.722 60.7078L162.693 67.1354L161.412 67.2324L124.321 69.9349L123.863 63.6835L158.864 61.1398L163.142 60.8312L164.722 60.7078Z" fill="white" stroke="black" stroke-linecap="round" stroke-linejoin="round"/>
<path d="M124.321 69.9348L118.604 70.3492L27.2174 76.9885L27.169 77.0017L26.6012 77.037L26.1523 70.7857L61.8179 68.1934L123.863 63.6835L124.321 69.9348Z" fill="white" stroke="black" stroke-linecap="round" stroke-linejoin="round"/>
<path d="M76.9137 13.3774H76.8828" stroke="black" stroke-linecap="round" stroke-linejoin="round"/>
<path d="M94.5648 23.7111V30.9808H84.601V29.0146H72.6523L74.0254 23.9888H84.601V23.7111H94.5648Z" fill="black" stroke="black" stroke-linecap="round" stroke-linejoin="round"/>
<path d="M94.5647 36.0154V39.8596H69.6992L70.6718 36.2843H84.6009V36.0154H94.5647Z" fill="black" stroke="black" stroke-linecap="round" stroke-linejoin="round"/>
<path d="M118.304 46.8516V54.1125H65.8223L66.6541 51.0617L67.7675 47.1205H108.345V46.8516H118.304Z" fill="black" stroke="black" stroke-linecap="round" stroke-linejoin="round"/>
<path d="M84.6013 16.7191H15.418V23.9888H84.6013V16.7191Z" fill="#00ED64" stroke="black" stroke-linecap="round" stroke-linejoin="round"/>
<path d="M84.6013 29.0145H15.418V36.2842H84.6013V29.0145Z" fill="white" stroke="black" stroke-linecap="round" stroke-linejoin="round"/>
<path d="M108.345 39.8596H39.1621V47.1205H108.345V39.8596Z" fill="#00ED64" stroke="black" stroke-linecap="round" stroke-linejoin="round"/>
<path d="M9.85591 16.7191H0.886719V23.9844H9.85591V16.7191Z" fill="#00ED64" stroke="black" stroke-linecap="round" stroke-linejoin="round"/>
<path d="M9.85591 29.019H0.886719V36.2844H9.85591V29.019Z" fill="white" stroke="black" stroke-linecap="round" stroke-linejoin="round"/>
<path d="M33.5981 39.8596H24.6289V47.1249H33.5981V39.8596Z" fill="#00ED64" stroke="black" stroke-linecap="round" stroke-linejoin="round"/>
</g>
<defs>
<clipPath id="clip0_707_406357">
<rect width="180" height="83" fill="white" transform="translate(0.666016 0.5)"/>
</clipPath>
</defs>
</svg>
