<svg width="12" height="12" viewBox="0 0 12 12" fill="none" xmlns="http://www.w3.org/2000/svg">
<path fill-rule="evenodd" clip-rule="evenodd" d="M10.7665 3.9926C10.7716 4.0626 10.7741 4.1676 10.7741 4.3076C10.7741 4.9576 10.6777 5.60634 10.4848 6.25385C10.2919 6.90135 9.99873 7.52259 9.60533 8.1176C9.21193 8.7126 8.74366 9.23884 8.20051 9.69635C7.65736 10.1538 7.00254 10.5188 6.23604 10.7913C5.46954 11.0638 4.64975 11.2001 3.77665 11.2001C2.40101 11.2001 1.14214 10.8376 0 10.1126C0.177666 10.1326 0.375634 10.1426 0.593909 10.1426C1.73605 10.1426 2.7538 9.7976 3.64721 9.1076C3.11421 9.0976 2.63706 8.93635 2.21574 8.62385C1.79441 8.31135 1.50508 7.9126 1.34772 7.4276C1.51523 7.4526 1.67005 7.4651 1.81218 7.4651C2.03046 7.4651 2.24619 7.4376 2.45939 7.3826C1.89086 7.2676 1.42005 6.98885 1.04695 6.54635C0.673856 6.10385 0.48731 5.5901 0.48731 5.0051V4.9751C0.832489 5.1651 1.20304 5.2676 1.59898 5.2826C1.26396 5.0626 0.997463 4.7751 0.799492 4.4201C0.601522 4.0651 0.502538 3.6801 0.502538 3.2651C0.502538 2.8251 0.614212 2.4176 0.837563 2.0426C1.45178 2.7876 2.19923 3.38385 3.07995 3.83135C3.96066 4.27885 4.90355 4.5276 5.90863 4.5776C5.86802 4.3876 5.84772 4.2026 5.84772 4.0226C5.84772 3.35259 6.08756 2.78135 6.56726 2.30885C7.04696 1.83635 7.6269 1.6001 8.30711 1.6001C9.01777 1.6001 9.61675 1.85509 10.1041 2.3651C10.6574 2.2601 11.1777 2.0651 11.665 1.7801C11.4772 2.3551 11.1168 2.8001 10.5838 3.1151C11.0558 3.0651 11.5279 2.9401 12 2.7401C11.6599 3.2301 11.2487 3.6476 10.7665 3.9926Z" fill="white"/>
<mask id="mask0_2203_196497" style="mask-type:alpha" maskUnits="userSpaceOnUse" x="0" y="1" width="12" height="11">
<path fill-rule="evenodd" clip-rule="evenodd" d="M10.7665 3.9926C10.7716 4.0626 10.7741 4.1676 10.7741 4.3076C10.7741 4.9576 10.6777 5.60634 10.4848 6.25385C10.2919 6.90135 9.99873 7.52259 9.60533 8.1176C9.21193 8.7126 8.74366 9.23884 8.20051 9.69635C7.65736 10.1538 7.00254 10.5188 6.23604 10.7913C5.46954 11.0638 4.64975 11.2001 3.77665 11.2001C2.40101 11.2001 1.14214 10.8376 0 10.1126C0.177666 10.1326 0.375634 10.1426 0.593909 10.1426C1.73605 10.1426 2.7538 9.7976 3.64721 9.1076C3.11421 9.0976 2.63706 8.93635 2.21574 8.62385C1.79441 8.31135 1.50508 7.9126 1.34772 7.4276C1.51523 7.4526 1.67005 7.4651 1.81218 7.4651C2.03046 7.4651 2.24619 7.4376 2.45939 7.3826C1.89086 7.2676 1.42005 6.98885 1.04695 6.54635C0.673856 6.10385 0.48731 5.5901 0.48731 5.0051V4.9751C0.832489 5.1651 1.20304 5.2676 1.59898 5.2826C1.26396 5.0626 0.997463 4.7751 0.799492 4.4201C0.601522 4.0651 0.502538 3.6801 0.502538 3.2651C0.502538 2.8251 0.614212 2.4176 0.837563 2.0426C1.45178 2.7876 2.19923 3.38385 3.07995 3.83135C3.96066 4.27885 4.90355 4.5276 5.90863 4.5776C5.86802 4.3876 5.84772 4.2026 5.84772 4.0226C5.84772 3.35259 6.08756 2.78135 6.56726 2.30885C7.04696 1.83635 7.6269 1.6001 8.30711 1.6001C9.01777 1.6001 9.61675 1.85509 10.1041 2.3651C10.6574 2.2601 11.1777 2.0651 11.665 1.7801C11.4772 2.3551 11.1168 2.8001 10.5838 3.1151C11.0558 3.0651 11.5279 2.9401 12 2.7401C11.6599 3.2301 11.2487 3.6476 10.7665 3.9926Z" fill="white"/>
</mask>
<g mask="url(#mask0_2203_196497)">
</g>
</svg>
